<svg height="483pt" viewBox="-4 0 483 483.2" width="483pt" xmlns="http://www.w3.org/2000/svg" xmlns:xlink="http://www.w3.org/1999/xlink"><linearGradient id="a" gradientUnits="userSpaceOnUse" x1="49.748" x2="441.956" y1="91.04" y2="483.24"><stop offset="0" stop-color="#B11F24"/><stop offset=".437" stop-color="#DB393E"/><stop offset="1" stop-color="#FDA914"/></linearGradient><path d="m457.410156 278.191406c-21.699218-14.492187-47.214844-22.214844-73.308594-22.191406h-48v-45c-.023437-9.3125-6.800781-17.234375-16-18.695312v-40.304688h-16v40h-16v-16h-16v16.585938c-16.203124 2.5-28.914062 15.214843-31.417968 31.414062h-38.335938c-14.488281.019531-26.230468 11.757812-26.246094 26.246094v6.152344c-30.933593 1.496093-61.4375 7.839843-90.402343 18.800781l-5.757813-28.800781c-.761718-3.722657-4.039062-6.398438-7.839844-6.398438h-24c-4.417968 0-8 3.582031-8 8v48.152344l-16 8v-.152344h-8v-16h-16v48h16v-16h7.933594c5.273438 3.449219 10.609375 6.792969 16.066406 9.878906v54.121094c0 4.417969 3.582032 8 8 8h24c3.800782 0 7.078126-2.675781 7.839844-6.398438l6.910156-34.539062c31.457032 11.183594 64.589844 16.910156 97.976563 16.9375h199.273437c26.09375.023438 51.609376-7.699219 73.308594-22.191406 11.304688-7.535156 18.09375-20.222656 18.09375-33.808594s-6.789062-26.273438-18.09375-33.808594zm-391.863281 97.808594h-9.445313v-35.054688l14.949219 7.480469zm190.554687-146.246094c.011719-12.007812 9.742188-21.742187 21.75-21.753906h39.25c1.65625 0 3 1.34375 3 3v5h-24v16h24v24h-64zm-64 20.492188c.007813-5.652344 4.589844-10.238282 10.246094-10.246094h37.753906v16h-48zm-136 5.753906h9.445313l5.058594 25.335938c-4.113281 1.824218-8.21875 3.671874-12.242188 5.679687l-2.261719 1.136719zm392.4375 76.496094c-19.074218 12.738281-41.5 19.523437-64.4375 19.503906h-199.273437c-50.097656.042969-99.269531-13.503906-142.273437-39.199219l2.761718-1.386719c2.070313.859376 4.410156.757813 6.398438-.269531l32-16c1.449218-.742187 2.636718-1.90625 3.402344-3.34375 32.660156-13.003906 67.484374-19.722656 102.640624-19.800781h194.34375c22.9375-.019531 45.363282 6.765625 64.4375 19.503906 6.855469 4.566406 10.972657 12.257813 10.972657 20.496094s-4.117188 15.929688-10.972657 20.496094zm-240.4375-252.496094c-13.257812 0-24 10.746094-24 24s10.742188 24 24 24c13.253907 0 24-10.746094 24-24s-10.746093-24-24-24zm0 32c-4.417968 0-8-3.582031-8-8s3.582032-8 8-8c4.417969 0 8 3.582031 8 8s-3.582031 8-8 8zm40-112c-22.09375 0-40 17.910156-40 40s17.90625 40 40 40c22.089844 0 40-17.910156 40-40-.027343-22.082031-17.921874-39.9726562-40-40zm0 64c-13.257812 0-24-10.746094-24-24s10.742188-24 24-24c13.253907 0 24 10.746094 24 24s-10.746093 24-24 24zm8 104c13.253907 0 24-10.746094 24-24s-10.746093-24-24-24c-13.257812 0-24 10.746094-24 24s10.742188 24 24 24zm0-32c4.417969 0 8 3.582031 8 8s-3.582031 8-8 8c-4.417968 0-8-3.582031-8-8s3.582032-8 8-8zm163.695313 300.632812c.492187 5.234376-1.1875 10.441407-4.648437 14.398438l-6.128907 7.199219c-.890625.8125-1.167969 2.09375-.695312 3.203125l6.582031 15.476562-14.734375 6.257813-6.574219-15.472657c-2.847656-6.675781-1.585937-14.394531 3.238282-19.816406l6.121093-7.199218c.621094-.640626.957031-1.507813.917969-2.398438-.222656-1.144531-.894531-2.152344-1.863281-2.800781-8.289063-5.921875-10.472657-17.304688-4.960938-25.871094l3.738281-5.867187 13.496094 8.59375-3.738281 5.871093c-1.277344 2 0 3.648438 1.34375 4.671875 4.402344 3.3125 7.257813 8.28125 7.90625 13.753906zm24.878906-24.519531c8.902344 7.980469 10.308594 21.410157 3.257813 31.0625l-6.402344 8.847657c-1.453125 1.941406-1.832031 4.480468-1.007812 6.761718l6.855468 19.023438-15.039062 5.390625-6.855469-19.015625c-2.597656-7.25-1.445313-15.3125 3.078125-21.542969l6.402344-8.847656c2.273437-3.109375 1.777344-7.445313-1.136719-9.960938-8.046875-7.183593-10.078125-18.96875-4.902344-28.433593l3.917969-7.199219 14.0625 7.632812-3.917969 7.199219c-1.644531 3.046875-.941406 6.828125 1.6875 9.082031zm-384.761719-281.328125-19.589843 11.75-19.785157-13.191406c-2.453124-1.636719-5.609374-1.789062-8.214843-.398438-2.601563 1.390626-4.226563 4.105469-4.222657 7.054688v32c-.003906 2.949219 1.621094 5.664062 4.222657 7.054688 2.605469 1.390624 5.761719 1.238281 8.214843-.398438l19.785157-13.191406 19.589843 11.75c12.585938 7.578125 28.714844 5.597656 39.089844-4.800782l10.753906-10.75c3.121094-3.125 3.121094-8.1875 0-11.3125l-10.753906-10.75c-10.371094-10.40625-26.5-12.394531-39.089844-4.816406zm-35.8125 22.269532v-2.109376l1.597657 1.054688zm63.589844 4c-5.191406 5.191406-13.25 6.179687-19.542968 2.402343l-12.503907-7.457031 12.503907-7.496094c6.292968-3.777344 14.351562-2.789062 19.542968 2.398438l5.097656 5.097656zm235.3125 258.539062c-10.378906-10.394531-26.503906-12.375-39.089844-4.800781l-19.589843 11.75-19.785157-13.191407c-2.453124-1.636718-5.609374-1.789062-8.210937-.402343-2.601563 1.390625-4.226563 4.101562-4.226563 7.050781v32c-.003906 2.949219 1.621094 5.664062 4.222657 7.054688 2.605469 1.390624 5.761719 1.238281 8.214843-.398438l19.785157-13.191406 19.589843 11.75c12.585938 7.578125 28.714844 5.597656 39.089844-4.800782l10.753906-10.75c3.121094-3.125 3.121094-8.1875 0-11.3125zm-74.902344 17.460938v-2.109376l1.597657 1.054688zm63.589844 4.042968c-5.191406 5.1875-13.25 6.175782-19.542968 2.398438l-12.503907-7.496094 12.503907-7.496094c6.292968-3.777344 14.351562-2.789062 19.542968 2.3984B11F2438l5.097656 5.097656zm80.410156-149.097656h24v16h-24zm0 32h24v16h-24zm0 0" fill="url(#a)"/></svg>
